<?xml version="1.0" encoding="UTF-8" standalone="no"?>
<!DOCTYPE svg PUBLIC "-//W3C//DTD SVG 1.1//EN" "http://www.w3.org/Graphics/SVG/1.1/DTD/svg11.dtd">
<svg xmlns="http://www.w3.org/2000/svg" version="1.1" viewBox="0.00 0.00 300.00 300.00">
<path fill="#000000" d="
  M 47.13 0.00
  L 50.00 0.00
  Q 56.41 1.71 61.29 5.46
  Q 67.53 10.27 73.60 17.46
  Q 83.20 28.83 90.90 41.16
  Q 91.38 41.92 92.18 41.50
  Q 102.66 36.01 114.08 33.98
  A 0.94 0.93 -7.5 0 0 114.85 32.99
  C 114.55 28.86 114.75 24.41 116.78 20.76
  C 117.87 18.78 120.26 19.38 121.43 20.84
  Q 123.98 24.04 126.73 27.13
  A 0.73 0.73 0.0 0 0 127.99 26.77
  C 128.51 23.76 129.56 19.48 132.05 17.54
  A 2.28 2.28 0.0 0 1 135.52 18.39
  Q 139.26 26.55 145.06 33.52
  Q 145.37 33.89 145.84 33.99
  Q 157.18 36.38 167.70 41.68
  Q 168.26 41.96 168.59 41.42
  Q 176.15 28.93 186.37 17.05
  C 192.50 9.93 199.83 2.58 209.60 0.00
  L 212.59 0.00
  C 214.70 0.76 216.60 1.45 218.20 3.10
  Q 221.02 5.98 221.74 7.06
  Q 232.05 22.31 236.47 39.50
  C 239.38 50.81 241.49 62.90 240.02 74.28
  Q 237.71 92.12 225.15 104.98
  A 0.69 0.69 0.0 0 0 225.01 105.73
  Q 231.25 120.40 238.99 133.82
  Q 242.25 139.48 247.69 145.10
  C 249.09 146.55 248.69 148.76 246.66 149.29
  Q 242.22 150.45 238.00 150.30
  Q 236.11 150.23 237.49 151.51
  Q 239.66 153.55 242.21 155.07
  A 2.08 2.08 0.0 0 1 242.76 158.16
  Q 241.93 159.19 240.97 160.13
  Q 223.18 177.53 200.85 191.99
  Q 196.67 194.69 192.41 196.76
  A 0.70 0.70 0.0 0 0 192.11 197.73
  Q 199.27 210.41 199.66 224.65
  Q 199.67 225.17 200.19 225.10
  Q 212.86 223.42 222.00 230.82
  Q 222.43 231.17 222.68 230.68
  C 227.80 220.52 239.67 211.70 249.79 206.51
  C 259.13 201.73 268.01 197.22 275.16 189.42
  C 276.45 188.01 278.71 187.06 279.77 189.31
  C 287.51 205.79 291.24 225.83 287.68 243.89
  Q 284.33 260.88 272.91 274.65
  Q 267.58 281.08 260.01 285.06
  Q 237.85 296.70 212.43 289.84
  Q 211.34 289.55 210.52 290.31
  C 208.49 292.19 205.31 293.97 203.39 294.69
  Q 189.86 299.82 179.84 289.90
  Q 178.57 288.65 177.65 287.19
  Q 177.22 286.50 176.78 287.18
  Q 175.26 289.58 174.17 290.43
  Q 163.87 298.45 150.60 300.00
  L 147.67 300.00
  C 140.45 298.75 134.87 297.29 130.14 291.26
  A 0.58 0.58 0.0 0 0 129.21 291.29
  Q 125.84 296.12 119.45 298.12
  Q 116.65 298.99 113.91 300.00
  L 107.20 300.00
  Q 104.33 299.15 101.47 298.44
  Q 89.43 295.47 81.98 286.37
  A 0.23 0.23 0.0 0 0 81.61 286.39
  C 77.28 293.54 69.27 297.39 60.93 296.22
  Q 56.44 295.59 51.98 293.05
  Q 49.68 291.73 47.77 290.17
  Q 32.80 277.93 28.38 258.31
  C 27.00 252.19 27.54 244.67 30.55 238.92
  Q 38.96 222.87 58.72 225.09
  Q 59.26 225.15 59.29 224.62
  Q 60.00 209.71 67.14 197.53
  A 0.62 0.61 -61.7 0 0 66.89 196.67
  Q 55.04 190.69 44.21 182.51
  Q 29.20 171.18 17.13 158.68
  A 2.46 2.46 0.0 0 1 17.63 154.87
  Q 20.27 153.28 22.32 151.27
  Q 23.59 150.02 21.82 150.19
  Q 17.24 150.61 12.60 149.12
  C 10.61 148.48 10.69 146.50 11.91 145.19
  Q 18.01 138.59 20.96 133.31
  Q 27.43 121.68 34.65 106.03
  Q 34.88 105.54 34.50 105.14
  Q 24.48 94.70 21.13 81.97
  Q 17.78 69.22 20.22 53.54
  C 22.75 37.33 27.99 21.72 37.11 8.33
  C 40.22 3.77 42.10 1.81 47.13 0.00
  Z
  M 20.59 142.40
  Q 19.43 143.69 18.52 145.14
  A 0.30 0.30 0.0 0 0 18.78 145.60
  L 28.18 145.47
  A 2.19 2.17 -17.5 0 1 30.02 146.42
  Q 31.32 148.30 29.85 150.16
  Q 26.91 153.88 23.21 156.85
  A 0.57 0.57 0.0 0 0 23.16 157.69
  Q 29.86 164.74 37.66 171.39
  Q 38.19 171.84 38.87 171.92
  Q 46.98 172.92 54.44 171.45
  C 61.36 170.09 69.65 165.54 75.46 161.40
  Q 85.41 154.31 96.49 145.25
  C 100.42 142.03 104.98 139.04 109.39 136.49
  C 121.65 129.39 134.44 128.79 146.82 134.70
  Q 151.73 137.04 155.20 139.52
  C 157.95 141.49 160.84 143.40 163.43 145.49
  C 172.39 152.74 180.49 159.31 189.87 165.00
  Q 196.44 168.99 201.93 170.77
  Q 209.38 173.19 219.23 171.92
  Q 220.66 171.74 221.76 170.79
  Q 230.07 163.66 236.46 157.76
  Q 236.93 157.32 236.44 156.92
  Q 232.67 153.83 229.67 150.05
  Q 228.86 149.03 228.99 147.78
  A 2.51 2.51 0.0 0 1 231.50 145.52
  L 240.72 145.56
  A 0.44 0.43 -21.4 0 0 241.04 144.83
  Q 238.93 142.59 237.16 139.91
  C 230.28 129.44 225.31 117.85 220.00 106.73
  C 219.35 105.37 219.44 104.07 220.52 102.99
  Q 237.83 85.64 235.52 60.80
  Q 233.29 36.78 222.17 16.50
  Q 220.82 14.03 219.00 11.57
  Q 217.15 9.07 215.18 6.75
  C 212.32 3.39 208.03 4.94 204.94 6.91
  Q 198.17 11.23 192.73 17.19
  Q 180.72 30.35 171.62 45.28
  Q 170.21 47.60 167.63 46.34
  Q 156.00 40.67 143.69 38.26
  A 2.67 2.66 74.4 0 1 142.21 37.42
  Q 137.68 32.29 134.28 26.24
  Q 133.12 24.19 132.70 26.51
  L 131.65 32.35
  Q 131.27 34.49 129.13 34.12
  C 125.78 33.55 122.71 29.71 120.64 27.21
  Q 119.80 26.20 119.62 27.50
  Q 119.06 31.54 120.02 35.22
  A 2.13 2.13 0.0 0 1 118.34 37.86
  Q 105.96 40.10 94.65 45.42
  Q 92.05 46.65 90.74 46.97
  Q 90.22 47.10 89.74 46.85
  Q 88.48 46.20 87.79 45.05
  Q 77.42 27.85 63.53 13.95
  C 60.09 10.50 49.45 0.95 44.52 6.55
  C 41.00 10.55 37.98 14.90 35.55 19.82
  Q 26.90 37.31 24.57 56.14
  Q 23.32 66.23 24.37 74.07
  Q 26.57 90.54 38.81 102.70
  Q 39.61 103.49 39.96 104.51
  Q 40.14 105.04 39.92 105.54
  C 33.42 120.04 28.61 130.26 22.69 139.61
  Q 21.74 141.12 20.59 142.40
  Z
  M 157.64 202.42
  C 158.17 201.40 158.95 200.84 160.09 200.69
  C 172.44 199.04 184.56 196.13 194.96 190.01
  Q 205.00 184.09 213.99 176.85
  Q 214.86 176.15 213.74 176.18
  Q 201.69 176.52 191.12 170.32
  Q 181.62 164.74 175.37 159.90
  Q 166.61 153.13 157.50 145.99
  Q 152.51 142.08 146.22 138.76
  Q 128.25 129.28 109.75 140.76
  C 99.72 146.99 91.15 154.86 81.75 161.71
  C 70.48 169.94 59.24 176.54 45.19 176.13
  Q 43.69 176.09 44.88 177.01
  Q 56.29 185.90 68.15 191.70
  Q 81.54 198.25 99.26 200.72
  C 101.19 200.99 102.80 202.46 101.41 204.48
  Q 98.01 209.41 98.31 215.47
  A 1.07 1.06 80.6 0 0 99.66 216.44
  C 101.25 216.00 103.26 215.08 104.60 216.56
  A 2.28 2.27 -46.8 0 1 104.69 219.50
  Q 101.40 223.62 102.03 229.61
  Q 102.12 230.45 102.77 229.92
  Q 104.24 228.75 105.80 227.68
  Q 108.18 226.04 109.63 228.64
  A 1.55 1.49 -56.0 0 1 109.80 229.61
  C 108.16 239.78 109.44 253.14 118.92 259.13
  Q 124.86 262.89 129.25 268.75
  A 0.39 0.38 45.8 0 0 129.86 268.76
  Q 134.24 263.25 139.85 259.30
  Q 142.59 257.37 143.73 256.20
  C 149.23 250.55 150.29 241.00 149.56 232.48
  Q 149.44 231.13 148.86 229.90
  A 2.15 2.13 -32.2 0 1 149.46 227.33
  C 151.59 225.61 153.82 227.89 155.17 229.42
  A 0.60 0.60 0.0 0 0 156.22 229.07
  Q 156.63 223.55 153.32 219.18
  Q 153.08 218.86 153.05 218.47
  C 152.88 216.65 154.44 215.34 156.21 215.86
  Q 157.93 216.36 159.72 216.38
  A 0.99 0.99 0.0 0 0 160.72 215.41
  Q 160.88 209.63 157.72 204.47
  A 2.10 2.07 43.1 0 1 157.64 202.42
  Z
  M 276.61 195.11
  C 271.27 199.88 265.57 203.98 259.25 207.06
  Q 253.64 209.79 247.35 213.50
  Q 245.33 214.68 247.66 214.46
  C 249.78 214.26 254.17 214.11 253.06 217.81
  Q 251.70 222.35 251.34 227.52
  A 0.82 0.82 0.0 0 0 252.60 228.26
  Q 258.36 224.61 263.89 221.73
  A 2.15 2.14 -13.2 0 1 267.03 223.67
  Q 266.95 228.20 266.95 233.13
  Q 266.95 234.43 267.22 235.76
  A 0.53 0.52 68.0 0 0 268.02 236.10
  L 275.59 231.21
  Q 279.27 228.83 280.55 233.02
  Q 281.65 236.65 282.24 240.23
  Q 282.31 240.68 282.66 240.95
  Q 283.35 241.47 283.45 240.61
  C 285.30 224.86 282.83 209.87 277.10 195.23
  A 0.31 0.31 0.0 0 0 276.61 195.11
  Z
  M 112.08 287.64
  A 1.64 1.06 -78.0 0 1 112.18 287.90
  Q 113.34 291.44 116.14 293.89
  Q 116.57 294.27 117.13 294.10
  Q 122.81 292.26 126.11 287.33
  A 0.96 0.95 42.7 0 0 126.06 286.20
  Q 123.34 282.88 119.95 281.09
  Q 118.38 280.26 118.83 278.53
  Q 118.92 278.19 119.18 277.94
  Q 120.15 277.00 121.38 277.55
  Q 123.67 278.56 125.89 280.62
  A 0.52 0.52 0.0 0 0 126.76 280.20
  Q 126.64 278.48 126.89 276.50
  C 127.67 270.23 118.46 264.88 114.47 261.74
  C 106.47 255.46 104.17 245.16 104.54 235.18
  A 0.32 0.31 -12.0 0 0 104.08 234.89
  C 99.91 236.90 98.37 234.37 97.43 230.91
  Q 96.58 227.76 98.01 221.62
  Q 98.13 221.11 97.62 220.99
  Q 94.56 220.31 93.97 217.25
  Q 92.96 212.02 95.33 205.69
  Q 95.64 204.88 94.78 204.76
  Q 82.52 203.04 72.06 198.95
  A 0.44 0.43 -64.1 0 0 71.52 199.14
  Q 64.39 211.43 64.02 226.18
  Q 64.00 226.84 64.58 227.15
  Q 71.20 230.75 75.64 237.41
  C 83.92 249.81 87.61 266.46 84.19 280.63
  Q 84.05 281.18 84.37 281.66
  C 90.20 290.32 101.08 294.88 111.23 295.09
  A 0.34 0.34 0.0 0 0 111.50 294.54
  Q 108.71 291.24 108.10 287.74
  Q 107.81 286.07 109.34 285.35
  Q 110.71 284.72 112.08 287.64
  Z
  M 149.37 284.37
  Q 151.14 285.27 150.61 287.11
  Q 149.46 291.12 147.19 294.57
  A 0.31 0.31 0.0 0 0 147.45 295.05
  Q 159.87 295.23 169.60 287.60
  Q 173.17 284.79 174.69 282.25
  Q 174.93 281.84 174.80 281.39
  C 170.50 266.01 175.28 247.62 184.89 235.04
  C 187.56 231.55 190.61 229.01 194.37 227.04
  Q 195.03 226.70 195.00 225.95
  Q 194.55 210.99 187.54 199.45
  A 0.59 0.59 0.0 0 0 186.82 199.21
  Q 175.75 203.53 164.43 204.81
  Q 163.48 204.92 163.81 205.81
  C 165.37 209.99 167.62 220.63 160.76 221.05
  Q 160.11 221.08 160.24 221.72
  C 161.11 226.09 161.73 230.06 159.38 233.91
  C 158.60 235.19 156.89 236.03 155.41 235.35
  Q 154.44 234.89 154.49 235.96
  C 154.80 243.21 153.28 251.22 148.95 257.14
  Q 146.50 260.49 144.79 261.62
  C 137.79 266.25 131.33 271.09 131.37 280.08
  Q 131.37 281.89 132.58 280.54
  Q 134.30 278.60 136.61 277.29
  Q 137.80 276.62 138.72 277.62
  L 139.18 278.12
  Q 140.28 279.31 138.93 280.21
  Q 135.50 282.51 133.17 285.48
  A 1.35 1.34 -42.2 0 0 133.09 287.03
  Q 136.25 291.93 141.72 293.89
  Q 142.30 294.10 142.74 293.67
  Q 145.85 290.69 146.78 286.29
  Q 147.16 284.51 148.97 284.30
  Q 149.19 284.27 149.37 284.37
  Z
  M 249.57 232.85
  Q 247.69 231.69 247.53 229.46
  Q 247.17 224.17 248.55 219.14
  A 0.57 0.57 0.0 0 0 247.97 218.42
  L 240.08 218.77
  Q 239.56 218.79 239.15 219.12
  Q 230.81 225.81 225.97 234.31
  Q 225.69 234.79 226.00 235.26
  Q 233.39 246.21 230.12 259.96
  Q 226.73 274.17 216.35 285.37
  Q 215.92 285.83 216.54 285.96
  C 235.09 289.93 254.74 286.49 268.01 272.55
  Q 277.34 262.75 281.53 248.63
  Q 281.70 248.07 281.39 247.57
  Q 278.12 242.26 277.32 235.91
  A 0.61 0.61 0.0 0 0 276.38 235.47
  C 273.70 237.28 269.32 240.66 266.05 240.96
  Q 265.59 241.00 265.28 240.66
  C 262.44 237.60 262.95 231.28 263.17 227.43
  A 0.48 0.47 75.3 0 0 262.44 227.00
  Q 258.59 229.48 254.80 231.50
  Q 252.89 232.53 250.50 233.02
  Q 250.00 233.12 249.57 232.85
  Z
  M 44.16 231.74
  Q 39.32 233.91 36.50 238.18
  C 32.07 244.90 31.45 252.73 33.71 260.38
  Q 38.79 277.57 52.37 287.49
  Q 56.84 290.76 61.52 291.67
  C 68.20 292.98 75.52 288.41 78.32 282.43
  Q 81.57 275.50 80.49 265.84
  C 79.31 255.30 75.68 243.18 68.14 235.76
  Q 57.81 225.61 44.16 231.74
  Z
  M 207.77 229.67
  C 195.00 227.60 186.22 238.76 182.28 249.32
  C 178.95 258.24 177.17 266.75 178.53 276.14
  Q 179.25 281.10 181.78 284.71
  C 185.03 289.34 191.47 292.82 197.28 291.55
  Q 205.03 289.85 211.66 283.16
  C 220.86 273.90 228.66 259.09 225.53 245.88
  Q 222.24 232.01 207.77 229.67
  Z"
/>
<path fill="#000000" d="
  M 69.53 62.32
  Q 55.49 75.75 46.37 93.78
  Q 45.57 95.37 43.81 95.07
  Q 43.21 94.96 42.81 94.51
  Q 36.98 87.91 34.93 79.17
  Q 30.58 60.60 36.93 40.97
  Q 39.03 34.51 42.79 28.88
  C 46.11 23.92 50.72 20.87 56.75 23.98
  C 58.49 24.87 60.28 25.80 61.74 27.10
  Q 68.11 32.79 71.61 37.39
  Q 76.66 44.04 80.88 50.35
  A 2.27 2.27 0.0 0 1 80.29 53.47
  Q 74.77 57.31 69.53 62.32
  Z
  M 68.08 57.51
  C 70.41 55.39 73.05 53.51 75.36 51.35
  A 0.93 0.92 -39.7 0 0 75.48 50.14
  C 70.25 42.85 64.72 35.25 57.70 29.68
  Q 56.61 28.82 55.36 28.19
  Q 54.07 27.55 52.79 27.29
  C 49.77 26.67 47.33 29.82 45.93 32.08
  Q 40.44 41.00 38.45 53.21
  C 36.67 64.08 37.15 74.31 41.54 84.54
  Q 42.40 86.55 43.69 88.18
  A 0.36 0.36 0.0 0 0 44.29 88.13
  Q 54.10 70.28 68.08 57.51
  Z"
/>
<path fill="#000000" d="
  M 219.28 34.66
  C 219.70 35.61 220.27 36.38 220.66 37.39
  C 227.30 54.41 229.11 79.84 215.97 94.41
  C 214.53 96.00 212.76 94.67 212.03 93.20
  Q 201.31 71.83 182.72 56.51
  Q 181.54 55.54 178.62 53.62
  Q 176.58 52.28 178.10 50.08
  C 184.65 40.57 188.74 34.93 195.71 28.34
  C 200.92 23.42 208.29 19.77 214.12 26.46
  Q 217.20 29.99 219.28 34.66
  Z
  M 202.58 70.06
  Q 209.40 78.57 214.54 88.30
  A 0.37 0.36 46.4 0 0 215.18 88.32
  Q 221.61 77.32 221.31 63.85
  Q 220.93 47.10 213.70 33.40
  C 212.28 30.71 208.78 25.92 205.15 27.46
  Q 201.05 29.20 197.45 32.82
  Q 189.65 40.66 183.21 50.61
  A 0.71 0.70 -55.8 0 0 183.39 51.57
  C 188.63 55.36 193.08 59.48 197.44 64.14
  Q 200.18 67.07 202.58 70.06
  Z"
/>
<path fill="#000000" d="
  M 79.0328 141.0736
  A 14.80 12.18 92.7 0 1 67.5635 125.7162
  A 14.80 12.18 92.7 0 1 80.4272 111.5064
  A 14.80 12.18 92.7 0 1 91.8965 126.8638
  A 14.80 12.18 92.7 0 1 79.0328 141.0736
  Z
  M 83.0800 127.4296
  A 5.73 4.07 89.3 0 0 87.0797 121.6503
  A 5.73 4.07 89.3 0 0 82.9400 115.9704
  A 5.73 4.07 89.3 0 0 78.9403 121.7497
  A 5.73 4.07 89.3 0 0 83.0800 127.4296
  Z"
/>
<path fill="#000000" d="
  M 180.5210 141.0970
  A 14.83 12.24 87.6 0 1 167.6707 126.7926
  A 14.83 12.24 87.6 0 1 179.2790 111.4630
  A 14.83 12.24 87.6 0 1 192.1293 125.7674
  A 14.83 12.24 87.6 0 1 180.5210 141.0970
  Z
  M 183.0000 127.3900
  A 5.71 4.06 89.9 0 0 187.0500 121.6729
  A 5.71 4.06 89.9 0 0 182.9800 115.9700
  A 5.71 4.06 89.9 0 0 178.9300 121.6871
  A 5.71 4.06 89.9 0 0 183.0000 127.3900
  Z"
/>
<path fill="#000000" d="
  M 128.91 166.94
  C 121.90 175.09 108.49 170.04 108.78 159.49
  Q 108.83 157.65 110.68 157.59
  Q 111.27 157.57 111.85 157.89
  A 1.55 1.55 0.0 0 1 112.64 159.26
  C 112.56 166.24 119.67 169.02 125.08 165.47
  C 128.42 163.28 127.55 158.24 127.65 154.89
  Q 127.67 154.25 127.22 153.79
  C 125.23 151.73 120.17 146.24 120.96 143.13
  Q 121.08 142.64 121.51 142.36
  Q 123.19 141.27 123.99 141.16
  Q 129.10 140.48 133.95 141.10
  C 143.14 142.27 134.44 151.11 131.90 153.56
  Q 131.46 153.99 131.49 154.60
  C 131.64 157.62 130.65 161.69 132.73 164.22
  C 134.31 166.14 137.08 167.46 139.53 167.05
  Q 146.25 165.92 146.42 159.40
  C 146.46 157.89 148.10 157.11 149.38 157.85
  A 1.46 1.45 -83.1 0 1 150.08 158.75
  C 150.82 161.52 149.26 164.97 147.50 167.10
  Q 145.81 169.15 142.98 170.16
  Q 135.64 172.78 129.90 166.90
  Q 129.39 166.38 128.91 166.94
  Z"
/>
<rect fill="#000000" x="-4.53" y="-5.54" transform="translate(207.94,243.91) rotate(23.6)" width="9.06" height="11.08" rx="4.19"/>
<ellipse fill="#000000" cx="0.00" cy="0.00" transform="translate(51.63,243.96) rotate(67.2)" rx="5.70" ry="4.71"/>
<ellipse fill="#000000" cx="0.00" cy="0.00" transform="translate(65.15,245.81) rotate(72.9)" rx="5.68" ry="4.67"/>
<ellipse fill="#000000" cx="0.00" cy="0.00" transform="translate(194.44,245.83) rotate(104.2)" rx="5.64" ry="4.72"/>
<ellipse fill="#000000" cx="0.00" cy="0.00" transform="translate(42.09,253.39) rotate(65.9)" rx="5.74" ry="4.75"/>
<ellipse fill="#000000" cx="0.00" cy="0.00" transform="translate(217.49,253.36) rotate(113.9)" rx="5.71" ry="4.70"/>
<path fill="#000000" d="
  M 48.40 267.15
  C 47.68 261.92 49.78 256.76 54.44 254.15
  C 60.09 250.97 67.16 255.18 70.06 260.10
  Q 71.37 262.32 69.97 264.43
  C 67.06 268.78 61.99 265.63 58.61 268.90
  C 56.02 271.41 52.93 272.56 49.70 270.18
  C 48.80 269.51 48.55 268.19 48.40 267.15
  Z"
/>
<path fill="#000000" d="
  M 190.96 265.65
  A 3.20 3.20 0.0 0 1 189.07 261.53
  L 189.10 261.44
  A 12.38 11.38 -69.7 0 1 204.07 253.78
  L 204.07 253.78
  A 12.38 11.38 -69.7 0 1 210.45 269.34
  L 210.41 269.43
  A 3.20 3.20 0.0 0 1 206.30 271.32
  L 190.96 265.65
  Z"
/>
</svg>
